<svg xmlns="http://www.w3.org/2000/svg" width="34.33" height="34.33" viewBox="0 0 34.33 34.33">
  <g id="Grupo_4084" data-name="Grupo 4084" transform="translate(-869.294 -4559.23)">
    <g id="Grupo_302" data-name="Grupo 302" transform="translate(869.294 4559.23)">
      <path id="Caminho_244" data-name="Caminho 244" d="M846.6,162.085a17.165,17.165,0,1,1,17.165-17.165A17.185,17.185,0,0,1,846.6,162.085Zm0-33.029a15.863,15.863,0,1,0,15.863,15.864A15.882,15.882,0,0,0,846.6,129.057Z" transform="translate(-829.437 -127.755)" fill="#fff"/>
    </g>
    <g id="Grupo_305" data-name="Grupo 305" transform="translate(877.404 4567.342)">
      <g id="Grupo_303" data-name="Grupo 303" transform="translate(0 0)">
        <path id="Caminho_245" data-name="Caminho 245" d="M847.838,138.732c2.418,0,2.7.01,3.659.053a5.024,5.024,0,0,1,1.682.312,2.993,2.993,0,0,1,1.718,1.718,5,5,0,0,1,.312,1.681c.043.955.053,1.242.053,3.659s-.01,2.7-.053,3.659a5,5,0,0,1-.312,1.682,2.993,2.993,0,0,1-1.718,1.718,5.007,5.007,0,0,1-1.682.312c-.955.043-1.241.053-3.659.053s-2.7-.01-3.659-.053a5,5,0,0,1-1.681-.312,2.993,2.993,0,0,1-1.718-1.718,5.019,5.019,0,0,1-.312-1.682c-.043-.955-.052-1.241-.052-3.659s.009-2.7.052-3.659a5.017,5.017,0,0,1,.313-1.681A2.993,2.993,0,0,1,842.5,139.1a5.017,5.017,0,0,1,1.681-.312c.955-.043,1.242-.053,3.659-.053m0-1.631c-2.459,0-2.767.011-3.733.055a6.653,6.653,0,0,0-2.2.421,4.635,4.635,0,0,0-2.648,2.648,6.651,6.651,0,0,0-.421,2.2c-.044.966-.055,1.274-.055,3.733s.01,2.767.055,3.733a6.651,6.651,0,0,0,.421,2.2,4.635,4.635,0,0,0,2.648,2.648,6.675,6.675,0,0,0,2.2.421c.966.043,1.274.054,3.733.054s2.767-.01,3.733-.054a6.676,6.676,0,0,0,2.2-.421,4.635,4.635,0,0,0,2.648-2.648,6.676,6.676,0,0,0,.421-2.2c.043-.966.054-1.274.054-3.733s-.01-2.767-.054-3.733a6.676,6.676,0,0,0-.421-2.2,4.635,4.635,0,0,0-2.648-2.648,6.653,6.653,0,0,0-2.2-.421c-.966-.043-1.274-.055-3.733-.055" transform="translate(-838.783 -137.101)" fill="#fff"/>
      </g>
      <g id="Grupo_304" data-name="Grupo 304" transform="translate(4.406 4.406)">
        <path id="Caminho_246" data-name="Caminho 246" d="M848.51,142.178a4.65,4.65,0,1,0,4.65,4.65,4.65,4.65,0,0,0-4.65-4.65m0,7.668a3.018,3.018,0,1,1,3.018-3.018,3.018,3.018,0,0,1-3.018,3.018" transform="translate(-843.86 -142.178)" fill="#fff"/>
      </g>
      <path id="Caminho_247" data-name="Caminho 247" d="M855.709,141.8a1.086,1.086,0,1,1-1.086-1.086,1.087,1.087,0,0,1,1.086,1.086" transform="translate(-840.734 -137.579)" fill="#fff"/>
    </g>
  </g>
</svg>
