<svg xmlns="http://www.w3.org/2000/svg" xmlns:xlink="http://www.w3.org/1999/xlink" width="71" height="70" viewBox="0 0 71 70">
  <defs>
    <clipPath id="clip-path">
      <rect id="Ret창ngulo_1291" data-name="Ret창ngulo 1291" width="32.998" height="34.199" fill="#25bdea"/>
    </clipPath>
  </defs>
  <g id="Grupo_4088" data-name="Grupo 4088" transform="translate(-844 -975)">
    <rect id="Ret창ngulo_1272" data-name="Ret창ngulo 1272" width="71" height="70" rx="20" transform="translate(844 975)" fill="#31086d"/>
    <g id="Grupo_4067" data-name="Grupo 4067" transform="translate(863 992.453)">
      <g id="Grupo_4070" data-name="Grupo 4070" transform="translate(0 0)" clip-path="url(#clip-path)">
        <path id="Caminho_2010" data-name="Caminho 2010" d="M11.4,22.382H.428A.423.423,0,0,0,0,22.825a5.929,5.929,0,0,0,11.824,0,.423.423,0,0,0-.427-.443m21.172,0H21.6a.423.423,0,0,0-.427.443,5.929,5.929,0,0,0,11.824,0,.423.423,0,0,0-.427-.443" transform="translate(0 -3.427)" fill="#25bdea"/>
        <path id="Caminho_2011" data-name="Caminho 2011" d="M28.349,8.867a1.05,1.05,0,0,0-.76-.617,1.249,1.249,0,0,0-.33-.141,40.086,40.086,0,0,0-7.807-1.016,2.957,2.957,0,0,0-1.694-1.512L18.83,4.063a.423.423,0,0,0,.034-.434l-1.7-3.4a.424.424,0,0,0-.758,0l-1.7,3.4a.421.421,0,0,0,.033.434l1.073,1.518a2.956,2.956,0,0,0-1.695,1.512A40.086,40.086,0,0,0,6.316,8.109a1.249,1.249,0,0,0-.33.141,1.052,1.052,0,0,0-.76.617L1.884,16.838h2.3L6.2,12.015l2.022,4.823h2.3L7.809,10.374a39.8,39.8,0,0,1,6.308-.739,2.97,2.97,0,0,0,.976,1.162V27.424H13.4a1.693,1.693,0,0,0-1.694,1.694v.847H9.165a1.693,1.693,0,0,0-1.694,1.694v2.117A.424.424,0,0,0,7.9,34.2H25.68a.424.424,0,0,0,.423-.423V31.658a1.694,1.694,0,0,0-1.694-1.694H21.869v-.847a1.694,1.694,0,0,0-1.694-1.694H18.481V10.8a2.977,2.977,0,0,0,.976-1.162,39.8,39.8,0,0,1,6.308.739l-2.709,6.463h2.3l2.022-4.823,2.022,4.823h2.3Z" transform="translate(-0.288 0)" fill="#25bdea"/>
      </g>
    </g>
  </g>
</svg>
