<svg xmlns="http://www.w3.org/2000/svg" width="29.187" height="29.345" viewBox="0 0 29.187 29.345">
  <g id="Grupo_4082" data-name="Grupo 4082" transform="translate(-1063.239 -3372.977)">
    <path id="Caminho_2012" data-name="Caminho 2012" d="M29.612,12.062A14.549,14.549,0,0,0,15.412.812a17.482,17.482,0,0,0-2.79.286,14.542,14.542,0,0,0-9.97,21.219.949.949,0,0,1,.126.72c-.675,2.218-1.3,4.516-1.909,6.768-.091.4-.091.4.274.286,2.367-.64,4.7-1.235,7.054-1.818a.566.566,0,0,1,.526.034A14.577,14.577,0,0,0,29.612,12.062M17.459,27.3a5.743,5.743,0,0,1-1.681.149A12.552,12.552,0,0,1,9.2,25.77a.814.814,0,0,0-.743-.126c-1.315.332-2.6.675-3.9,1.006-.274.091-.3.046-.24-.229C4.665,25.21,5,23.987,5.374,22.74a.944.944,0,0,0-.149-.869A12.008,12.008,0,0,1,5.648,8.312,11.529,11.529,0,0,1,17.973,3.567a11.424,11.424,0,0,1,9.249,9.192A12,12,0,0,1,17.459,27.3" transform="translate(1062.42 3372.165)" fill="#5c23ab" fill-rule="evenodd"/>
    <path id="Caminho_2013" data-name="Caminho 2013" d="M12.631,15.213A3.812,3.812,0,0,1,11.122,15,14.734,14.734,0,0,1,3.234,9.222a8.262,8.262,0,0,1-1.692-3.43,3.976,3.976,0,0,1,1.315-3.9A2.3,2.3,0,0,1,4.8,1.6a1.5,1.5,0,0,1,.32.4c.412,1.029.857,1.989,1.28,2.973a.786.786,0,0,1-.069.617,5.643,5.643,0,0,1-.892,1.2.558.558,0,0,0-.091.8,9.755,9.755,0,0,0,4.973,4.264.555.555,0,0,0,.755-.171c.366-.423.743-.892,1.086-1.349a.631.631,0,0,1,.812-.206c.709.332,1.418.663,2.092.983.194.08.332.16.492.217.72.354.72.412.64,1.189-.091,1.509-1.258,2.287-2.6,2.664a2.56,2.56,0,0,1-.972.034" transform="translate(1069.007 3379.269)" fill="#5c23ab" fill-rule="evenodd"/>
  </g>
</svg>
