<svg xmlns="http://www.w3.org/2000/svg" xmlns:xlink="http://www.w3.org/1999/xlink" width="71" height="70" viewBox="0 0 71 70">
  <defs>
    <clipPath id="clip-path">
      <rect id="Ret창ngulo_1288" data-name="Ret창ngulo 1288" width="25" height="36.63" fill="#25bdea"/>
    </clipPath>
  </defs>
  <g id="Grupo_4087" data-name="Grupo 4087" transform="translate(-473 -975)">
    <rect id="Ret창ngulo_1270" data-name="Ret창ngulo 1270" width="71" height="70" rx="20" transform="translate(473 975)" fill="#31086d"/>
    <g id="Grupo_4065" data-name="Grupo 4065" transform="translate(496 992)">
      <g id="Grupo_4064" data-name="Grupo 4064" transform="translate(0 0)" clip-path="url(#clip-path)">
        <path id="Caminho_2002" data-name="Caminho 2002" d="M24.944,23.37a2.586,2.586,0,0,0-1.844-.975,2.164,2.164,0,0,0-.108-2.277,2.558,2.558,0,0,0-1.738-.96,2.363,2.363,0,0,0-.214-2.294,2.628,2.628,0,0,0-1.924-.96,1.605,1.605,0,0,0-.166.009L23.061,11.8a1.885,1.885,0,0,0,.412-2.166,1.855,1.855,0,0,0-1.658-1.03,1.831,1.831,0,0,0-1.3.538L10.1,19.554a1.84,1.84,0,0,1,0-2.6l1.175-1.176a.638.638,0,0,0,0-.9l-.392-.392a2.487,2.487,0,0,0-3.518,0L4.156,17.694a2.764,2.764,0,0,0-.8,2.133l.217,3.287a2.757,2.757,0,0,0,.8,1.771l7.2,7.2a2.76,2.76,0,0,0,1.952.809h2.919a2.757,2.757,0,0,0,1.952-.809l6.279-6.279a1.909,1.909,0,0,0,.271-2.436" transform="translate(-0.267 -0.687)" fill="#25bdea"/>
        <path id="Caminho_2003" data-name="Caminho 2003" d="M2.087,25.434a.46.46,0,0,0-.651,0l-1.3,1.3a.459.459,0,0,0,0,.651L9.244,36.5a.46.46,0,0,0,.651,0l1.3-1.3a.459.459,0,0,0,0-.651ZM19.889,0l-6.9,6.9L9.767,3.681,7.006,6.441l5.981,5.981L22.65,2.761Z" transform="translate(0 0)" fill="#25bdea"/>
      </g>
    </g>
  </g>
</svg>
