<svg xmlns="http://www.w3.org/2000/svg" xmlns:xlink="http://www.w3.org/1999/xlink" width="71" height="70" viewBox="0 0 71 70">
  <defs>
    <clipPath id="clip-path">
      <rect id="Ret창ngulo_1284" data-name="Ret창ngulo 1284" width="39" height="39" fill="#25bdea"/>
    </clipPath>
  </defs>
  <g id="Grupo_4089" data-name="Grupo 4089" transform="translate(-1215 -975)">
    <rect id="Ret창ngulo_1274" data-name="Ret창ngulo 1274" width="71" height="70" rx="20" transform="translate(1215 975)" fill="#31086d"/>
    <g id="Grupo_4057" data-name="Grupo 4057" transform="translate(1231 991)">
      <g id="Grupo_4056" data-name="Grupo 4056">
        <g id="Grupo_4055" data-name="Grupo 4055" clip-path="url(#clip-path)">
          <path id="Caminho_1994" data-name="Caminho 1994" d="M25.869,18.307a4.537,4.537,0,1,1-4.534-4.688,4.412,4.412,0,0,1,.609.047l2.595-2.595a7.614,7.614,0,0,0-3.2-.711,7.949,7.949,0,1,0,7.793,7.947,8.023,8.023,0,0,0-.631-3.129l-2.65,2.651q.023.236.023.477m3.611,10.5a13.229,13.229,0,0,0,4.488-14.659l-.723.723a2.791,2.791,0,0,1-1.986.823c-.081,0-.158-.015-.237-.022a10.042,10.042,0,1,1-6.658-6.944,2.807,2.807,0,0,1,.816-1.923l.912-.912A13.294,13.294,0,0,0,13.826,29.283l-2.19,5.839a1.222,1.222,0,1,0,2.288.859l2.062-5.5a13.218,13.218,0,0,0,4.534,1.09v3.979a1.222,1.222,0,0,0,2.444,0V31.5a13.208,13.208,0,0,0,4.409-1.354l2.187,5.831a1.222,1.222,0,0,0,1.144.794,1.222,1.222,0,0,0,1.144-1.652Z" transform="translate(-1.487 -0.926)" fill="#25bdea"/>
          <path id="Caminho_1995" data-name="Caminho 1995" d="M36.806,9.367l-2.317-.891a.771.771,0,0,1-.443-.443l-.891-2.316a.77.77,0,0,0-.723-.5.762.762,0,0,0-.543.226L29.05,8.287a.771.771,0,0,0-.174.822l.747,1.942-4.876,4.876a2.628,2.628,0,1,0,1.439,1.441l4.7-4.7,2.531.974a.772.772,0,0,0,.822-.174l2.839-2.839a.772.772,0,0,0-.269-1.265" transform="translate(-3.919 -0.967)" fill="#25bdea"/>
        </g>
      </g>
    </g>
  </g>
</svg>
