<svg id="Grupo_4108" data-name="Grupo 4108" xmlns="http://www.w3.org/2000/svg" xmlns:xlink="http://www.w3.org/1999/xlink" width="58.82" height="50.421" viewBox="0 0 58.82 50.421">
  <defs>
    <clipPath id="clip-path">
      <rect id="Retângulo_1315" data-name="Retângulo 1315" width="58.82" height="50.421" fill="none"/>
    </clipPath>
  </defs>
  <g id="Grupo_4107" data-name="Grupo 4107" clip-path="url(#clip-path)">
    <path id="Caminho_2067" data-name="Caminho 2067" d="M15.592,0,33.011,27.354,50.287,0ZM30.737,18.563A10.1,10.1,0,0,0,34.3,14.129c1.224-3.194-.315-5.65-3.436-5.483a6.821,6.821,0,0,0-1.756.342,9.832,9.832,0,0,1,1.106-.619l1.668-2.557H29.162l1.059-1.693H36.2l-2.24,3.545c2.4.355,3.479,2.577,2.4,5.374A10.239,10.239,0,0,1,30.737,18.563Z" transform="translate(-3.801)" fill="#a2a2a2"/>
    <path id="Caminho_2068" data-name="Caminho 2068" d="M0,50.586V46.711a1.129,1.129,0,0,1,1.118-1.14H12.54a1.129,1.129,0,0,1,1.14,1.118v13.7a1.129,1.129,0,0,1-1.118,1.14H1.14A1.129,1.129,0,0,1,0,60.411v-3.9H3.648v1.822h6.384V55.145H5.472V51.954h4.56V48.762H3.648v1.824Z" transform="translate(0 -11.109)" fill="#a2a2a2"/>
    <path id="Caminho_2069" data-name="Caminho 2069" d="M33.577,48.762H28.561V61.529H24.913V48.762H19.9V45.57H33.574Z" transform="translate(-4.85 -11.109)" fill="#a2a2a2"/>
    <path id="Caminho_2070" data-name="Caminho 2070" d="M52.835,52.455l-2.713,4.059,3.352,5.016h-4.1l-2.44-3.648H43.441V61.53H39.793V46.708a1.129,1.129,0,0,1,1.118-1.14H52.336a1.129,1.129,0,0,1,1.14,1.118v3.67a4.514,4.514,0,0,1-.641,2.1M43.442,54.69h3.808l2.576-3.876V48.762H43.442Z" transform="translate(-9.701 -11.109)" fill="#a2a2a2"/>
    <path id="Caminho_2071" data-name="Caminho 2071" d="M73.372,61.529H60.834a1.129,1.129,0,0,1-1.14-1.118V46.71a1.129,1.129,0,0,1,1.118-1.14H73.372v3.192H63.343v3.192h8.208v3.192H63.343v3.19H73.372Z" transform="translate(-14.552 -11.109)" fill="#a2a2a2"/>
  </g>
</svg>
