<svg xmlns="http://www.w3.org/2000/svg" xmlns:xlink="http://www.w3.org/1999/xlink" width="180.828" height="145" viewBox="0 0 180.828 145">
  <defs>
    <clipPath id="clip-path">
      <rect id="Ret창ngulo_1323" data-name="Ret창ngulo 1323" width="145" height="145" transform="translate(0 -0.175)" fill="none"/>
    </clipPath>
  </defs>
  <g id="Grupo_4144" data-name="Grupo 4144" transform="translate(-670.172 -2794)">
    <g id="Grupo_4123" data-name="Grupo 4123" transform="translate(706 2794.175)">
      <rect id="Ret창ngulo_1322" data-name="Ret창ngulo 1322" width="145" height="145" transform="translate(0 -0.175)" fill="#fff"/>
      <g id="Grupo_4122" data-name="Grupo 4122">
        <g id="Grupo_4121" data-name="Grupo 4121" clip-path="url(#clip-path)">
          <path id="Caminho_2076" data-name="Caminho 2076" d="M104.121,70.8v2.607a8.251,8.251,0,0,1-8.255,8.255H28.956A8.252,8.252,0,0,1,20.7,73.407V70.8h83.421Z" transform="translate(9.279 31.736)" fill="#fff"/>
          <path id="Caminho_2077" data-name="Caminho 2077" d="M92.171,35.8V86.489H27V36.379Z" transform="translate(12.103 16.047)" fill="#fff"/>
          <path id="Caminho_2078" data-name="Caminho 2078" d="M77.007,60.1v9.124H40.8V60.1a17.468,17.468,0,0,1,5.357-12.745A18.025,18.025,0,0,1,77.007,60.1" transform="translate(18.289 18.827)" fill="#a7eafd"/>
          <path id="Caminho_2079" data-name="Caminho 2079" d="M67.28,39.789a10.871,10.871,0,0,1-21.434-.145,7.651,7.651,0,0,1-.145-1.883,10.862,10.862,0,1,1,21.724,0,4.821,4.821,0,0,1-.145,2.028" transform="translate(20.486 12.058)" fill="#a7eafd"/>
          <path id="Caminho_2080" data-name="Caminho 2080" d="M47.447,42.479a6.732,6.732,0,0,1-3.041.724h-.869l-1.012,6.083-7.1-6.083H27.9a7.107,7.107,0,0,1-7.095-7.1V28A7.107,7.107,0,0,1,27.9,20.9h16.51A7.107,7.107,0,0,1,51.5,28v8.11a7.291,7.291,0,0,1-4.055,6.372" transform="translate(9.324 9.368)" fill="#fff"/>
          <path id="Caminho_2081" data-name="Caminho 2081" d="M96.4,84.027H29.494A10.014,10.014,0,0,1,19.5,74.034V71.428a1.918,1.918,0,0,1,1.884-1.883h8.978a1.883,1.883,0,1,1,0,3.765H23.121v.869a6.429,6.429,0,0,0,6.374,6.372H96.4a6.429,6.429,0,0,0,6.371-6.372V73.165H95.533a1.883,1.883,0,0,1,0-3.765h9.125a1.918,1.918,0,0,1,1.883,1.883V73.89A10.263,10.263,0,0,1,96.4,84.027" transform="translate(8.741 31.109)" fill="#1e81ce"/>
          <path id="Caminho_2082" data-name="Caminho 2082" d="M92.754,88.854H27.583A1.918,1.918,0,0,1,25.7,86.972V37.007a1.883,1.883,0,0,1,3.767,0V85.234H91.018V38.165H76.245a1.883,1.883,0,1,1,0-3.765H92.754a1.918,1.918,0,0,1,1.884,1.883V86.972a1.918,1.918,0,0,1-1.884,1.883" transform="translate(11.52 15.42)" fill="#1e81ce"/>
          <path id="Caminho_2083" data-name="Caminho 2083" d="M49.486,38.165h-9.7a1.883,1.883,0,0,1,0-3.765h9.7a1.917,1.917,0,0,1,1.883,1.883,2.024,2.024,0,0,1-1.883,1.883" transform="translate(16.989 15.42)" fill="#1e81ce"/>
          <path id="Caminho_2084" data-name="Caminho 2084" d="M77.59,71.548H41.384A1.918,1.918,0,0,1,39.5,69.665V60.541A19.779,19.779,0,0,1,59.341,40.7,20.025,20.025,0,0,1,79.327,60.686V69.81a1.869,1.869,0,0,1-1.736,1.738m-34.47-3.621H75.706V60.686A16.348,16.348,0,0,0,59.341,44.321,16.7,16.7,0,0,0,47.755,49.1a16.2,16.2,0,0,0-4.779,11.586v7.241Z" transform="translate(17.706 18.244)" fill="#1e81ce"/>
          <path id="Caminho_2085" data-name="Caminho 2085" d="M57.2,51.189A12.609,12.609,0,0,1,44.744,40.617a11.07,11.07,0,0,1-.143-2.172,12.744,12.744,0,1,1,25.488,0,11.07,11.07,0,0,1-.143,2.172A13.271,13.271,0,0,1,57.2,51.189m0-21.724a9.18,9.18,0,0,0-9.125,9.124,4.88,4.88,0,0,0,.146,1.448,9.118,9.118,0,0,0,17.957,0,4.88,4.88,0,0,0,.146-1.448A9.276,9.276,0,0,0,57.2,29.465" transform="translate(19.992 11.52)" fill="#1e81ce"/>
          <path id="Caminho_2086" data-name="Caminho 2086" d="M43.108,51.551a1.646,1.646,0,0,1-1.16-.434l-6.662-5.648H28.479A9.025,9.025,0,0,1,19.5,36.489v-8.11A9.025,9.025,0,0,1,28.479,19.4h16.51a9.026,9.026,0,0,1,8.981,8.979v8.11a8.914,8.914,0,0,1-5.215,8.11,12.006,12.006,0,0,1-3.041.869L44.844,50.1a2.3,2.3,0,0,1-1.159,1.448ZM28.479,23.165a5.346,5.346,0,0,0-5.359,5.359v8.11a5.346,5.346,0,0,0,5.359,5.359H36.01a1.644,1.644,0,0,1,1.159.434l4.779,4.055.579-2.9a1.72,1.72,0,0,1,1.738-1.448h.869a5.108,5.108,0,0,0,5.215-5.214v-8.11a5.347,5.347,0,0,0-5.36-5.359H28.479Z" transform="translate(8.741 8.696)" fill="#1e81ce"/>
          <path id="Caminho_2087" data-name="Caminho 2087" d="M42.6,28.165H26.384a1.883,1.883,0,1,1,0-3.765H42.6a1.883,1.883,0,1,1,0,3.765" transform="translate(10.982 10.937)" fill="#1e81ce"/>
          <path id="Caminho_2088" data-name="Caminho 2088" d="M37.907,33.165H28.783a1.883,1.883,0,1,1,0-3.765h9.124a1.883,1.883,0,1,1,0,3.765" transform="translate(12.058 13.179)" fill="#1e81ce"/>
        </g>
      </g>
    </g>
    <g id="Grupo_4130" data-name="Grupo 4130" transform="translate(-1760.439 4613.063) rotate(-113)">
      <path id="Caminho_2123" data-name="Caminho 2123" d="M4.963,12.463,0,15.3l4.964,2.658L7.8,23.1l2.66-5.139L15.6,15.3l-5.139-2.835L7.8,7.5Z" transform="translate(662.176 2940.32)" fill="#25bdea"/>
      <path id="Caminho_2124" data-name="Caminho 2124" d="M4.963,12.463,0,15.3l4.964,2.658L7.8,23.1l2.66-5.139L15.6,15.3l-5.139-2.835L7.8,7.5Z" transform="translate(689.984 2932.521)" fill="#25bdea"/>
      <path id="Caminho_2125" data-name="Caminho 2125" d="M45.3,0,42.464,4.964,37.5,7.8l4.964,2.658L45.3,15.6l2.658-5.141L53.094,7.8,47.956,4.964Z" transform="translate(652.73 2972)" fill="#25bdea"/>
    </g>
  </g>
</svg>
