<svg xmlns="http://www.w3.org/2000/svg" width="34.331" height="34.33" viewBox="0 0 34.331 34.33">
  <g id="Grupo_1373" data-name="Grupo 1373" transform="translate(-737 -4559.23)">
    <g id="Grupo_301" data-name="Grupo 301" transform="translate(737 4559.23)">
      <path id="Caminho_242" data-name="Caminho 242" d="M694.152,162.085a17.165,17.165,0,1,1,17.165-17.165A17.185,17.185,0,0,1,694.152,162.085Zm0-33.029a15.863,15.863,0,1,0,15.863,15.864A15.882,15.882,0,0,0,694.152,129.057Z" transform="translate(-676.986 -127.755)" fill="#fff"/>
    </g>
    <path id="Caminho_243" data-name="Caminho 243" d="M693.549,156h4.02V145.93h2.8l.3-3.37h-3.1v-1.92c0-.795.16-1.109.929-1.109h2.176v-3.5h-2.784c-2.991,0-4.34,1.317-4.34,3.839v2.688h-2.091v3.413h2.091Z" transform="translate(58.101 4430.381)" fill="#fff"/>
  </g>
</svg>
