<svg xmlns="http://www.w3.org/2000/svg" xmlns:xlink="http://www.w3.org/1999/xlink" width="146" height="152.056" viewBox="0 0 146 152.056">
  <defs>
    <clipPath id="clip-path">
      <rect id="Retângulo_1325" data-name="Retângulo 1325" width="146" height="146" transform="translate(-0.001 -0.002)" fill="none"/>
    </clipPath>
  </defs>
  <g id="Grupo_4135" data-name="Grupo 4135" transform="translate(-1031.999 -2391.944)">
    <g id="Grupo_4126" data-name="Grupo 4126" transform="translate(1032 2398.459)">
      <g id="Grupo_4125" data-name="Grupo 4125" transform="translate(0 -0.458)">
        <g id="Grupo_4124" data-name="Grupo 4124" clip-path="url(#clip-path)">
          <path id="Caminho_2089" data-name="Caminho 2089" d="M76.249,24.5a4.291,4.291,0,0,1,4.368,4.368V93.073a4.291,4.291,0,0,1-4.368,4.368H73.337V34.4a4.291,4.291,0,0,0-4.368-4.368H33.3V28.868A4.29,4.29,0,0,1,37.668,24.5H76.249Z" transform="translate(15.182 11.578)" fill="#fff"/>
          <path id="Caminho_2090" data-name="Caminho 2090" d="M71.249,28.3a4.291,4.291,0,0,1,4.368,4.368V96.873a4.291,4.291,0,0,1-4.368,4.368H32.668A4.29,4.29,0,0,1,28.3,96.873V32.813a4.29,4.29,0,0,1,4.368-4.368H71.249Z" transform="translate(12.902 13.31)" fill="#a7eafd"/>
          <path id="Caminho_2091" data-name="Caminho 2091" d="M85.617,25.213V89.275a4.292,4.292,0,0,1-4.368,4.368H78.338V30.6a4.291,4.291,0,0,0-4.368-4.368H38.3V25.068A4.291,4.291,0,0,1,42.667,20.7H81.25a4.609,4.609,0,0,1,4.368,4.513" transform="translate(17.461 9.845)" fill="#fff"/>
          <path id="Caminho_2092" data-name="Caminho 2092" d="M58.393,82.462a1.893,1.893,0,1,1,0-3.785,2.609,2.609,0,0,0,2.621-2.619V74.893a1.892,1.892,0,1,1,3.784,0v1.165a6.657,6.657,0,0,1-6.4,6.4" transform="translate(25.758 33.689)" fill="#1e81ce"/>
          <path id="Caminho_2093" data-name="Caminho 2093" d="M33.26,103.48A6.306,6.306,0,0,1,27,97.219V33.162A6.308,6.308,0,0,1,33.26,26.9h2.912a1.893,1.893,0,0,1,0,3.787H33.26A2.609,2.609,0,0,0,30.64,33.3V97.366a2.61,2.61,0,0,0,2.621,2.621,1.926,1.926,0,0,1,1.893,1.891,2.188,2.188,0,0,1-1.893,1.6" transform="translate(12.31 12.672)" fill="#1e81ce"/>
          <path id="Caminho_2094" data-name="Caminho 2094" d="M81.888,96.025H78.976a1.893,1.893,0,1,1,0-3.785h2.912a2.608,2.608,0,0,0,2.621-2.619V25.562a2.612,2.612,0,0,0-2.621-2.624H43.3a2.611,2.611,0,0,0-2.619,2.624v1.162a1.893,1.893,0,1,1-3.785,0V25.562A6.307,6.307,0,0,1,43.16,19.3h38.58A6.31,6.31,0,0,1,88,25.562V89.621a6.217,6.217,0,0,1-6.113,6.4" transform="translate(16.823 9.207)" fill="#1e81ce"/>
          <path id="Caminho_2095" data-name="Caminho 2095" d="M76.842,99.826H73.93a1.928,1.928,0,0,1-1.893-1.894v-62.9a2.61,2.61,0,0,0-2.622-2.619H33.891A1.927,1.927,0,0,1,32,30.525V29.36a6.306,6.306,0,0,1,6.259-6.26H76.842a6.307,6.307,0,0,1,6.26,6.26V93.42a6.537,6.537,0,0,1-6.26,6.406m-1.165-3.64h1.165a2.611,2.611,0,0,0,2.621-2.622V29.506a2.61,2.61,0,0,0-2.621-2.621H38.259a2.494,2.494,0,0,0-2.474,1.893H69.562a6.307,6.307,0,0,1,6.26,6.259v61.15Z" transform="translate(14.589 10.94)" fill="#1e81ce"/>
          <path id="Caminho_2096" data-name="Caminho 2096" d="M64.21,36.985H35.092a1.893,1.893,0,0,1,0-3.785H64.21a1.893,1.893,0,1,1,0,3.785" transform="translate(15.137 15.544)" fill="#1e81ce"/>
          <path id="Caminho_2097" data-name="Caminho 2097" d="M64.21,43.185H35.092a1.893,1.893,0,0,1,0-3.785H64.21a1.893,1.893,0,1,1,0,3.785" transform="translate(15.137 18.371)" fill="#1e81ce"/>
          <path id="Caminho_2098" data-name="Caminho 2098" d="M64.21,49.485H35.092a1.893,1.893,0,0,1,0-3.785H64.21a1.893,1.893,0,1,1,0,3.785" transform="translate(15.137 21.243)" fill="#1e81ce"/>
          <path id="Caminho_2099" data-name="Caminho 2099" d="M64.21,55.684H35.092a1.893,1.893,0,0,1,0-3.785H64.21a1.893,1.893,0,1,1,0,3.785" transform="translate(15.137 24.069)" fill="#1e81ce"/>
          <path id="Caminho_2100" data-name="Caminho 2100" d="M64.21,61.986H35.092a1.893,1.893,0,0,1,0-3.787H64.21a1.893,1.893,0,0,1,0,3.787" transform="translate(15.137 26.941)" fill="#1e81ce"/>
          <path id="Caminho_2101" data-name="Caminho 2101" d="M64.21,68.184H35.092a1.893,1.893,0,0,1,0-3.785H64.21a1.893,1.893,0,1,1,0,3.785" transform="translate(15.137 29.768)" fill="#1e81ce"/>
          <path id="Caminho_2102" data-name="Caminho 2102" d="M64.21,74.486H35.092a1.893,1.893,0,0,1,0-3.787H64.21a1.893,1.893,0,0,1,0,3.787" transform="translate(15.137 32.64)" fill="#1e81ce"/>
          <path id="Caminho_2103" data-name="Caminho 2103" d="M105.107,80.684H21.391a1.893,1.893,0,0,1,0-3.785h83.716A1.928,1.928,0,0,1,107,78.792a2.161,2.161,0,0,1-1.893,1.893" transform="translate(8.89 35.467)" fill="#1e81ce"/>
        </g>
      </g>
    </g>
    <g id="Grupo_4131" data-name="Grupo 4131" transform="translate(612.551 -580.159) rotate(3)">
      <path id="Caminho_2123" data-name="Caminho 2123" d="M4.963,12.463,0,15.3l4.964,2.658L7.8,23.1l2.66-5.139L15.6,15.3l-5.139-2.835L7.8,7.5Z" transform="translate(663.174 2940.268)" fill="#25bdea"/>
      <path id="Caminho_2124" data-name="Caminho 2124" d="M4.963,12.463,0,15.3l4.964,2.658L7.8,23.1l2.66-5.139L15.6,15.3l-5.139-2.835L7.8,7.5Z" transform="translate(690.983 2932.469)" fill="#25bdea"/>
      <path id="Caminho_2125" data-name="Caminho 2125" d="M45.3,0,42.464,4.964,37.5,7.8l4.964,2.658L45.3,15.6l2.658-5.141L53.094,7.8,47.956,4.964Z" transform="translate(653.729 2971.948)" fill="#25bdea"/>
    </g>
  </g>
</svg>
