<svg xmlns="http://www.w3.org/2000/svg" width="34.33" height="34.33" viewBox="0 0 34.33 34.33">
  <g id="Grupo_1369" data-name="Grupo 1369" transform="translate(-913.392 -4559.23)">
    <g id="Grupo_297" data-name="Grupo 297" transform="translate(913.392 4559.23)">
      <path id="Caminho_235" data-name="Caminho 235" d="M897.419,162.085a17.165,17.165,0,1,1,17.165-17.165A17.184,17.184,0,0,1,897.419,162.085Zm0-33.029a15.863,15.863,0,1,0,15.863,15.864A15.882,15.882,0,0,0,897.419,129.057Z" transform="translate(-880.254 -127.755)" fill="#fff"/>
    </g>
    <path id="Caminho_236" data-name="Caminho 236" d="M907.334,142.174a2.275,2.275,0,0,0-1.6-1.611,65.945,65.945,0,0,0-14.156,0,2.274,2.274,0,0,0-1.6,1.611,25.586,25.586,0,0,0,0,8.778,2.277,2.277,0,0,0,1.6,1.612,65.945,65.945,0,0,0,14.156,0,2.278,2.278,0,0,0,1.6-1.612,25.639,25.639,0,0,0,0-8.778ZM896.8,149.257V143.87l4.735,2.694Z" transform="translate(31.902 4429.833)" fill="#fff"/>
  </g>
</svg>
