<svg xmlns="http://www.w3.org/2000/svg" xmlns:xlink="http://www.w3.org/1999/xlink" width="78.698" height="90.079" viewBox="0 0 78.698 90.079">
  <defs>
    <clipPath id="clip-path">
      <rect id="Retângulo_1326" data-name="Retângulo 1326" width="60.101" height="60.1" transform="translate(0 0)" fill="none"/>
    </clipPath>
  </defs>
  <g id="Grupo_4134" data-name="Grupo 4134" transform="translate(-1047 -3585.021)">
    <g id="Grupo_4128" data-name="Grupo 4128" transform="translate(1047 3615)">
      <g id="Grupo_4127" data-name="Grupo 4127" clip-path="url(#clip-path)">
        <path id="Caminho_2104" data-name="Caminho 2104" d="M12.5,1.4V18.9A17.4,17.4,0,0,0,23.8,35.2V46.4H36.3V35.2A17.589,17.589,0,0,0,47.5,18.8V1.3h-35Z" fill="#a7eafd"/>
        <path id="Caminho_2105" data-name="Caminho 2105" d="M43.8,52.6v6.3H16.3V52.6H43.8Z" fill="#a7eafd"/>
        <path id="Caminho_2106" data-name="Caminho 2106" d="M41.3,46.4v6.2H18.8V46.4H41.3Z" fill="#fff"/>
        <path id="Caminho_2107" data-name="Caminho 2107" d="M36.4,19.3l-4,2.8L34,26.8l-4-2.9-4,2.9,1.6-4.7-4-2.8h4.9L30,14.6l1.5,4.7Z" fill="#fff"/>
        <path id="Caminho_2108" data-name="Caminho 2108" d="M30,11.4a10,10,0,1,1-10,10,10.029,10.029,0,0,1,10-10m2.4,10.7,4-2.9H31.5L30,14.6l-1.5,4.7H23.6l4,2.9-1.5,4.7,4-2.9,4,2.9Z" fill="#fff"/>
        <path id="Caminho_2109" data-name="Caminho 2109" d="M43.8,60.1a1.325,1.325,0,0,1-1.3-1.3v-5H41.2a1.3,1.3,0,0,1,0-2.6h2.5A1.322,1.322,0,0,1,45,52.5v6.3a1.309,1.309,0,0,1-1.2,1.3" fill="#1e81ce"/>
        <path id="Caminho_2110" data-name="Caminho 2110" d="M16.3,60.1A1.325,1.325,0,0,1,15,58.8V52.6a1.325,1.325,0,0,1,1.3-1.3h2.5a1.3,1.3,0,0,1,0,2.6H17.5v5a1.289,1.289,0,0,1-1.2,1.2" fill="#1e81ce"/>
        <path id="Caminho_2111" data-name="Caminho 2111" d="M36.3,47.6A1.325,1.325,0,0,1,35,46.3V35.2a1.3,1.3,0,0,1,.8-1.2A16.4,16.4,0,0,0,46.2,18.8a1.3,1.3,0,0,1,2.6,0A18.638,18.638,0,0,1,37.5,35.9V46.2a1.336,1.336,0,0,1-1.2,1.4" fill="#1e81ce"/>
        <path id="Caminho_2112" data-name="Caminho 2112" d="M23.8,47.6a1.325,1.325,0,0,1-1.3-1.3V36a19.035,19.035,0,0,1-7.9-6.4,18.863,18.863,0,0,1-3.4-10.7,1.3,1.3,0,1,1,2.6,0A16.4,16.4,0,0,0,24.2,34.1a1.207,1.207,0,0,1,.8,1.2V46.5a1.283,1.283,0,0,1-1.2,1.1" fill="#1e81ce"/>
        <path id="Caminho_2113" data-name="Caminho 2113" d="M47.5,8.9a1.325,1.325,0,0,1-1.3-1.3v-5H13.8v5a1.3,1.3,0,1,1-2.6,0V1.3A1.324,1.324,0,0,1,12.5,0h35a1.324,1.324,0,0,1,1.3,1.3V7.6a1.325,1.325,0,0,1-1.3,1.3" fill="#1e81ce"/>
        <path id="Caminho_2114" data-name="Caminho 2114" d="M41.3,53.9H18.8a1.325,1.325,0,0,1-1.3-1.3V46.3A1.325,1.325,0,0,1,18.8,45H41.3a1.324,1.324,0,0,1,1.3,1.3v6.3a1.486,1.486,0,0,1-1.3,1.3M20,51.4H40V47.6H20Z" fill="#1e81ce"/>
        <path id="Caminho_2115" data-name="Caminho 2115" d="M12.5,20.1A7.554,7.554,0,0,1,5,12.6v-5A1.325,1.325,0,0,1,6.3,6.3h6.2a1.325,1.325,0,0,1,1.3,1.3V18.9a1.309,1.309,0,0,1-1.3,1.2M7.5,8.9v3.7a4.93,4.93,0,0,0,3.8,4.8V8.8H7.5Z" fill="#1e81ce"/>
        <path id="Caminho_2116" data-name="Caminho 2116" d="M47.5,20.1a1.324,1.324,0,0,1-1.3-1.3V7.6a1.325,1.325,0,0,1,1.3-1.3h6.3a1.325,1.325,0,0,1,1.3,1.3v5a7.709,7.709,0,0,1-7.6,7.5M48.8,8.9v8.6a5.016,5.016,0,0,0,3.8-4.8V9H48.8Z" fill="#1e81ce"/>
        <path id="Caminho_2117" data-name="Caminho 2117" d="M30,32.6A11.3,11.3,0,1,1,41.3,21.3,11.289,11.289,0,0,1,30,32.6m0-20a8.8,8.8,0,1,0,8.8,8.8A8.813,8.813,0,0,0,30,12.6" fill="#1e81ce"/>
        <path id="Caminho_2118" data-name="Caminho 2118" d="M26,28a1.445,1.445,0,0,1-.7-.2,1.47,1.47,0,0,1-.5-1.4L26,22.6l-3.2-2.3a1.47,1.47,0,0,1-.5-1.4,1.292,1.292,0,0,1,1.2-.9h4l1.2-3.8a1.292,1.292,0,0,1,1.2-.9,1.257,1.257,0,0,1,1.2.9L32.3,18h4a1.257,1.257,0,0,1,1.2.9,1.111,1.111,0,0,1-.5,1.4l-3.1,2.3,1.2,3.8a1.15,1.15,0,0,1-.5,1.4,1.36,1.36,0,0,1-1.5,0l-3.2-2.3-3.2,2.3c-.1.2-.4.2-.7.2m1.4-7.5.8.6a1.47,1.47,0,0,1,.5,1.4l-.3,1,.8-.6a1.36,1.36,0,0,1,1.5,0l.8.6-.3-1a1.15,1.15,0,0,1,.5-1.4l.8-.6h-1a1.257,1.257,0,0,1-1.2-.9l-.3-1-.3,1a1.292,1.292,0,0,1-1.2.9Z" fill="#1e81ce"/>
        <path id="Caminho_2119" data-name="Caminho 2119" d="M58.8,60.1H1.3a1.3,1.3,0,1,1,0-2.6H58.8a1.324,1.324,0,0,1,1.3,1.3,1.484,1.484,0,0,1-1.3,1.3" fill="#1e81ce"/>
      </g>
    </g>
    <g id="Grupo_4133" data-name="Grupo 4133">
      <path id="Caminho_2120" data-name="Caminho 2120" d="M4.963,12.463,0,15.3l4.964,2.658L7.8,23.1l2.66-5.139L15.6,15.3l-5.139-2.835L7.8,7.5Z" transform="translate(1082.051 3585.32)" fill="#25bdea"/>
      <path id="Caminho_2122" data-name="Caminho 2122" d="M4.963,12.463,0,15.3l4.964,2.658L7.8,23.1l2.66-5.139L15.6,15.3l-5.139-2.835L7.8,7.5Z" transform="translate(1109.857 3577.522)" fill="#25bdea"/>
      <path id="Caminho_2121" data-name="Caminho 2121" d="M45.3,0,42.464,4.964,37.5,7.8l4.964,2.658L45.3,15.6l2.658-5.141L53.094,7.8,47.956,4.964Z" transform="translate(1072.604 3617)" fill="#25bdea"/>
    </g>
  </g>
</svg>
