<svg xmlns="http://www.w3.org/2000/svg" xmlns:xlink="http://www.w3.org/1999/xlink" width="71" height="70" viewBox="0 0 71 70">
  <defs>
    <clipPath id="clip-path">
      <rect id="Ret창ngulo_1285" data-name="Ret창ngulo 1285" width="35.482" height="24.148" fill="#25bdea"/>
    </clipPath>
  </defs>
  <g id="Grupo_4092" data-name="Grupo 4092" transform="translate(-1215 -1300)">
    <rect id="Ret창ngulo_1274" data-name="Ret창ngulo 1274" width="71" height="70" rx="20" transform="translate(1215 1300)" fill="#31086d"/>
    <g id="Grupo_4059" data-name="Grupo 4059" transform="translate(1233 1323)">
      <g id="Grupo_4058" data-name="Grupo 4058" transform="translate(0 0)" clip-path="url(#clip-path)">
        <path id="Caminho_1996" data-name="Caminho 1996" d="M35.377,7.044,28.855.123A.391.391,0,0,0,28.3.106l-2.74,2.581a.391.391,0,0,0-.016.553l6.521,6.922a.391.391,0,0,0,.553.016L35.361,7.6a.392.392,0,0,0,.016-.553m-2.383.786a.852.852,0,1,1,.036-1.2.852.852,0,0,1-.036,1.2M6.717,1.07a.391.391,0,0,0-.549.069L.083,8.971a.391.391,0,0,0,.068.549L3.136,11.84a.391.391,0,0,0,.548-.069L9.77,3.938A.39.39,0,0,0,9.7,3.389ZM3.853,9.231a.855.855,0,1,1-.151-1.2.855.855,0,0,1,.151,1.2" transform="translate(0 0)" fill="#25bdea"/>
        <path id="Caminho_1997" data-name="Caminho 1997" d="M28.115,17.927l-6.688-5.221-1.219,1.116a6.641,6.641,0,0,1-4.446,1.963,4.873,4.873,0,0,1-.822-.07,4.581,4.581,0,0,1-3.193-2.192,2.3,2.3,0,0,1,.428-2.958l4.8-4.368a3.119,3.119,0,0,0-4.372.565l-4.69,6.062a2.345,2.345,0,0,0-.48,1.73l.3,2.461a2.345,2.345,0,0,0,.884,1.562l8.222,6.41a1.262,1.262,0,0,0,1.707-.143l.37-.4a1.263,1.263,0,0,0-.12-1.82l1.381,1.157a1.261,1.261,0,0,0,1.686-.058l.425-.41a1.262,1.262,0,0,0-.068-1.877l1.02.851a1.262,1.262,0,0,0,1.691-.068l.375-.367a1.262,1.262,0,0,0-.056-1.854l.674.582a1.261,1.261,0,0,0,1.793-.146l.584-.7a1.263,1.263,0,0,0-.193-1.8m3.269-6.25L25.736,5.916a1.562,1.562,0,0,0-.913-.455l-2.89-.378a1.563,1.563,0,0,0-1.252.391L20,6.092l-6.506,5.916a.363.363,0,0,0-.088.482l.041.068a2.618,2.618,0,0,0,1.826,1.232A4.458,4.458,0,0,0,18.9,12.374l2.432-2.226,7.652,5.975,2.385-2.236a1.565,1.565,0,0,0,.02-2.21" transform="translate(-1.619 -1.106)" fill="#25bdea"/>
      </g>
    </g>
  </g>
</svg>
