<svg id="Grupo_4113" data-name="Grupo 4113" xmlns="http://www.w3.org/2000/svg" xmlns:xlink="http://www.w3.org/1999/xlink" width="78.787" height="16.039" viewBox="0 0 78.787 16.039">
  <defs>
    <clipPath id="clip-path">
      <rect id="Retângulo_1314" data-name="Retângulo 1314" width="78.787" height="16.039" fill="none"/>
    </clipPath>
  </defs>
  <path id="Caminho_2055" data-name="Caminho 2055" d="M24.516,11.611v2.722H23.478Zm-1.4-3.72L17.852,18.74H21.7l1.374-3h1.445v3h3.767L27.976,7.891Z" transform="translate(-6.18 -2.731)" fill="#a2a2a2"/>
  <g id="Grupo_4105" data-name="Grupo 4105" transform="translate(0 0)">
    <g id="Grupo_4104" data-name="Grupo 4104" clip-path="url(#clip-path)">
      <path id="Caminho_2056" data-name="Caminho 2056" d="M45.576,9.189c-.116-1.242-2.209-1.3-2.209-1.3h-5.88L35.142,18.74h3.75l1.059-5.159s.824-.09.906.409c.076.462-.949,3.505-.571,4.751H44.1c-.495-1,.069-2.571.262-4.094a1.72,1.72,0,0,0-1.488-1.922l-.086-.009A3.115,3.115,0,0,0,45.575,9.19m-4.156,2.577c-.321.415-1.159.307-1.159.307l.577-2.806a.933.933,0,0,1,1.008.446,3.968,3.968,0,0,1-.426,2.053" transform="translate(-12.165 -2.731)" fill="#a2a2a2"/>
      <path id="Caminho_2057" data-name="Caminho 2057" d="M62.268,7.889l-4.81,10.849H52.314V7.889h3.411v7.243l2.932-7.245Z" transform="translate(-18.11 -2.73)" fill="#a2a2a2"/>
      <path id="Caminho_2058" data-name="Caminho 2058" d="M72.309,18.74l-.5-10.849H66.837L61.972,18.74h3.62l1.2-2.925h1.9V18.74Zm-4.887-4.446L68.7,11.2v3.1Z" transform="translate(-21.453 -2.731)" fill="#a2a2a2"/>
      <line id="Linha_265" data-name="Linha 265" x1="0.428" transform="translate(47.242 11.561)" fill="#a2a2a2"/>
      <line id="Linha_266" data-name="Linha 266" x1="0.538" transform="translate(45.431 11.561)" fill="#a2a2a2"/>
      <line id="Linha_267" data-name="Linha 267" x1="0.301" transform="translate(47.242 13.083)" fill="#a2a2a2"/>
      <line id="Linha_268" data-name="Linha 268" x1="0.473" transform="translate(44.87 13.083)" fill="#a2a2a2"/>
      <path id="Caminho_2059" data-name="Caminho 2059" d="M85.927,17.225l-.318,1.513h-7.02L80.977,7.89H84.89l-2.072,9.336Z" transform="translate(-27.205 -2.731)" fill="#a2a2a2"/>
      <line id="Linha_269" data-name="Linha 269" x1="0.456" transform="translate(58.721 14.496)" fill="#a2a2a2"/>
      <path id="Caminho_2060" data-name="Caminho 2060" d="M100.653,7.891l-1.9,10.849h-3.9l1.078-5.192h-1.1L93.8,18.739H90.123L92.46,7.891h3.5l-.85,4.262h1.112l.883-4.262Z" transform="translate(-31.198 -2.731)" fill="#a2a2a2"/>
      <line id="Linha_270" data-name="Linha 270" x1="0.732" transform="translate(65.032 9.421)" fill="#a2a2a2"/>
      <line id="Linha_271" data-name="Linha 271" x1="0.597" transform="translate(64.741 10.815)" fill="#a2a2a2"/>
      <line id="Linha_272" data-name="Linha 272" x1="0.055" y2="0.25" transform="translate(7.936 2.537)" fill="#a2a2a2"/>
      <path id="Caminho_2061" data-name="Caminho 2061" d="M7.612,24.483a14.543,14.543,0,0,0,1.91,0" transform="translate(-2.635 -8.475)" fill="#a2a2a2"/>
      <path id="Caminho_2062" data-name="Caminho 2062" d="M14.23,2.433l-.523,2.751-.11.581H8.67L8.8,5.183l.45-2.06a.7.7,0,0,0,.061-.286.688.688,0,0,0-1.317-.276.67.67,0,0,0-.055.25L7.4,5.183l-.131.581-.85,3.8-.7,3.125a.73.73,0,0,0-.1.374.466.466,0,0,0,0,.074.728.728,0,0,0,1.393.214v0a.66.66,0,0,0,.055-.262v-.005l.775-3.516h5.112l-.915,4.009s-.407,2.17-5.153,2.461H4.976a.014.014,0,0,1-.012,0c-3.4-.225-5.5-1.17-4.846-3.346l.148-.632L.855,9.561l.9-3.8.137-.581.479-2.031A.566.566,0,0,1,2.381,3.1C2.954.85,5.847.221,8.009.069h2.54c4.3,0,3.681,2.364,3.681,2.364" transform="translate(0 -0.024)" fill="#a2a2a2"/>
      <path id="Caminho_2063" data-name="Caminho 2063" d="M14.694.045a16.678,16.678,0,0,0-1.9-.03c-.176.008-.358.016-.546.031" transform="translate(-4.241 0)" fill="#a2a2a2"/>
      <line id="Linha_273" data-name="Linha 273" x1="0.188" y2="0.863" transform="translate(6.83 13.324)" fill="#a2a2a2"/>
      <path id="Caminho_2064" data-name="Caminho 2064" d="M112.626,7.89H110.2c-2.568,0-3.138,1.284-3.26,1.685a.169.169,0,0,1-.008.035l-.006.025-.006.029-.006.031L105.3,16.978c-.092,1.7,2.186,1.759,2.479,1.759h2.084c3.014,0,3.727-1.5,3.769-1.6v0l1.588-7.17c.268-2.047-2.419-2.08-2.593-2.08m-.881,2.172a.584.584,0,0,1-.025.121l-1.356,6.382a.3.3,0,0,1-.016.071v.014a.687.687,0,0,1-1.346-.2.676.676,0,0,1,.055-.266v0l1.317-6.211a.688.688,0,0,1,1.373,0,.436.436,0,0,1-.008.092" transform="translate(-36.451 -2.73)" fill="#a2a2a2"/>
      <path id="Caminho_2065" data-name="Caminho 2065" d="M107.784,10.559a.124.124,0,0,1-.006.029" transform="translate(-37.31 -3.655)" fill="#a2a2a2"/>
      <path id="Caminho_2066" data-name="Caminho 2066" d="M105.345,21.287a2.3,2.3,0,0,0-.045.327" transform="translate(-36.452 -7.369)" fill="#a2a2a2"/>
    </g>
  </g>
</svg>
