<svg xmlns="http://www.w3.org/2000/svg" xmlns:xlink="http://www.w3.org/1999/xlink" width="71" height="70" viewBox="0 0 71 70">
  <defs>
    <clipPath id="clip-path">
      <rect id="Ret창ngulo_1286" data-name="Ret창ngulo 1286" width="33.189" height="29.96" fill="#25bdea"/>
    </clipPath>
  </defs>
  <g id="Grupo_4090" data-name="Grupo 4090" transform="translate(-844 -1300)">
    <rect id="Ret창ngulo_1272" data-name="Ret창ngulo 1272" width="71" height="70" rx="20" transform="translate(844 1300)" fill="#31086d"/>
    <g id="Grupo_4061" data-name="Grupo 4061" transform="translate(863 1320)">
      <g id="Grupo_4060" data-name="Grupo 4060" transform="translate(0 0)" clip-path="url(#clip-path)">
        <path id="Caminho_1998" data-name="Caminho 1998" d="M8.947,18.693a.416.416,0,0,0-.4-.287H6.515A6.515,6.515,0,0,0,0,24.922v2.891a.97.97,0,0,0,.969.97H11.663a.415.415,0,0,0,.4-.545ZM14.475,0a7.991,7.991,0,1,0,7.992,7.992A7.991,7.991,0,0,0,14.475,0" transform="translate(0 0)" fill="#25bdea"/>
        <path id="Caminho_1999" data-name="Caminho 1999" d="M17.151,21.538A1.248,1.248,0,0,0,15.9,22.785v6.654a1.248,1.248,0,1,0,2.5,0V22.785a1.248,1.248,0,0,0-1.248-1.248m16.68,1.141c-.355-.858.4-2.48-.251-3.126s-2.268.1-3.126-.251c-.828-.344-1.436-2.033-2.388-2.033s-1.56,1.689-2.388,2.033c-.858.355-2.48-.4-3.126.251s.1,2.268-.251,3.126c-.344.828-2.033,1.436-2.033,2.388s1.689,1.56,2.033,2.388c.355.858-.4,2.48.251,3.126s2.268-.1,3.126.251c.828.344,1.436,2.033,2.388,2.033s1.56-1.689,2.388-2.033c.858-.355,2.48.4,3.126-.251s-.1-2.268.251-3.126c.344-.828,2.033-1.436,2.033-2.388s-1.689-1.56-2.033-2.388m-5.767,6.964a1.25,1.25,0,1,1,1.249-1.249,1.25,1.25,0,0,1-1.249,1.249m1.249-5.2a1.248,1.248,0,0,1-2.5,0v-2.99a1.248,1.248,0,0,1,2.5,0Z" transform="translate(-2.675 -2.905)" fill="#25bdea"/>
      </g>
    </g>
  </g>
</svg>
